<svg xmlns="http://www.w3.org/2000/svg" viewBox="0 0 32 32">
  <circle cx="16" cy="16" r="16" fill="#F7931A"/>
  <path fill="white" d="M21.9 14.2c.3-2-1.2-3.1-3.3-3.8l.7-2.8-1.7-.4-.7 2.7-1.3-.3.7-2.7-1.7-.4-.7 2.8-1.1-.3-2.4-.6-.5 1.8s1.3.3 1.2.3c.7.2.8.7.8 1l-.8 3.2c0 .1.1.1.1.1-.1 0-.1 0-.2-.1l-1.2 4.7c-.1.3-.4.7-1 .6.0.1-1.2-.3-1.2-.3l-.9 1.9 2.3.6 1.2.3-.7 2.8 1.7.4.7-2.8 1.4.4-.7 2.7 1.7.4.7-2.8c2.9.5 5-0.1 5.9-2.3.7-2-.1-3.1-1.5-3.9 1-.5 1.7-1.3 1.9-2.5zm-3.4 4.8c-.5 2-3.9 1-5 .7l.9-3.6c1.1.3 4.6.8 4.1 2.9zm.5-5.1c-.5 1.8-3.3 1-4.2.7l.8-3.3c1 .3 4 .7 3.4 2.6z"/>
</svg>
