<svg xmlns="http://www.w3.org/2000/svg" viewBox="0 0 32 32">
  <circle cx="16" cy="16" r="16" fill="#2775CA"/>
  <path fill="white" d="M20 17.2c0-2-1.2-2.7-3.6-3-1.7-.3-2-.7-2-1.4 0-.7.5-1.1 1.6-1.1 1 0 1.5.3 1.8 1.1.1.2.3.3.5.3h.8c.3 0 .5-.2.5-.5v-.1c-.3-1.3-1.3-2.3-2.7-2.5v-1c0-.3-.2-.5-.5-.5h-.8c-.3 0-.5.2-.5.5v1c-1.7.2-2.8 1.3-2.8 2.7 0 1.9 1.1 2.6 3.5 2.9 1.6.3 2.1.6 2.1 1.5 0 .9-.8 1.5-1.9 1.5-1.4 0-1.9-.6-2.1-1.3-.1-.2-.3-.4-.5-.4h-.9c-.3 0-.5.2-.5.5v.1c.3 1.4 1.2 2.4 2.9 2.7v1c0 .3.2.5.5.5h.8c.3 0 .5-.2.5-.5v-1c1.8-.2 2.9-1.4 2.9-2.9z"/>
  <path fill="white" fill-opacity="0.6" d="M13 21.3c-3.2-1-5.3-4-5.3-7.3 0-3.3 2.1-6.3 5.3-7.3.2-.1.4-.3.4-.6V5.4c0-.3-.2-.5-.5-.4-4.4 1.2-7.5 5.2-7.5 9.6 0 4.4 3.1 8.4 7.5 9.6.3.1.5-.1.5-.4V22c0-.3-.2-.6-.4-.7zm6-.1c4.4-1.2 7.5-5.2 7.5-9.6 0-4.4-3.1-8.4-7.5-9.6-.3-.1-.5.1-.5.4v.7c0 .3.2.5.4.6 3.2 1 5.3 4 5.3 7.3 0 3.3-2.1 6.3-5.3 7.3-.2.1-.4.3-.4.6v.7c0 .3.2.6.5.6z"/>
</svg>
